<?xml version="1.0" standalone="no"?>
<!DOCTYPE svg PUBLIC "-//W3C//DTD SVG 20010904//EN"
 "http://www.w3.org/TR/2001/REC-SVG-20010904/DTD/svg10.dtd">
<svg version="1.0" xmlns="http://www.w3.org/2000/svg"
 width="800.000000pt" height="800.000000pt" viewBox="0 0 800.000000 800.000000"
 preserveAspectRatio="xMidYMid meet">
<metadata>
Created by potrace 1.14, written by Peter Selinger 2001-2017
</metadata>
<g transform="translate(0.000000,800.000000) scale(0.100000,-0.100000)"
fill="#000000" stroke="none">
<path d="M3828 7657 c-76 -45 -138 -85 -138 -89 0 -10 226 -338 234 -341 6 -2
218 444 214 449 -26 23 -116 64 -141 63 -21 0 -79 -28 -169 -82z"/>
<path d="M4161 7578 c-16 -34 -65 -141 -110 -237 -44 -95 -81 -177 -81 -181 0
-6 326 -486 545 -803 11 -16 41 34 239 397 124 228 226 418 226 423 0 7 -752
451 -781 461 -5 2 -22 -25 -38 -60z"/>
<path d="M2910 7121 l-715 -418 -3 -99 -2 -99 361 -440 c198 -242 400 -487
447 -543 l85 -104 51 109 c29 59 211 449 406 865 195 417 357 758 360 758 3 0
12 -12 21 -26 l16 -26 12 30 c11 26 10 34 -5 57 l-17 27 -15 -28 -14 -27 -19
24 c-10 13 -69 99 -131 191 -62 92 -115 167 -118 167 -3 0 -327 -188 -720
-418z"/>
<path d="M4877 6857 c-87 -161 -192 -354 -233 -430 l-76 -139 -22 21 -23 21
-11 -25 c-10 -21 -9 -30 5 -51 l16 -26 15 27 c12 23 16 25 26 14 7 -8 210
-302 451 -654 240 -352 443 -646 449 -653 10 -10 46 49 174 285 l162 297 -2
579 -3 580 -383 224 c-211 122 -384 223 -385 223 -1 -1 -73 -132 -160 -293z"/>
<path d="M3530 6230 c-221 -473 -406 -860 -409 -860 -3 0 -12 10 -20 22 l-13
22 -15 -27 c-7 -15 -15 -27 -18 -27 -2 0 -195 234 -430 520 -234 286 -428 520
-431 520 -2 0 -4 -408 -4 -907 l1 -908 190 -110 c105 -60 195 -110 200 -110 5
0 112 220 238 488 126 268 232 491 235 494 4 4 14 -4 23 -16 l16 -24 14 27 c8
15 17 25 21 22 4 -2 122 -144 262 -315 193 -235 258 -307 266 -298 16 18 834
1524 834 1536 0 10 -521 774 -544 799 -10 10 -92 -156 -416 -848z"/>
<path d="M4114 5453 c-229 -422 -419 -770 -422 -773 -2 -3 -12 5 -21 17 l-18
22 -19 -24 -19 -24 -255 314 c-140 172 -257 314 -260 314 -6 1 -462 -970 -458
-974 4 -4 270 -159 447 -262 79 -46 147 -83 150 -83 3 0 89 153 190 340 101
187 187 340 191 340 4 0 13 -7 20 -15 17 -20 27 -19 35 6 4 11 11 19 15 17 5
-2 172 -201 370 -443 199 -242 367 -439 373 -437 7 2 147 82 312 179 l301 175
198 364 c109 201 202 367 207 369 4 3 14 -4 22 -16 l15 -21 17 26 17 26 105
-152 c57 -84 108 -159 113 -167 6 -12 13 -12 39 -1 l31 12 0 417 0 416 -23
-40 c-13 -22 -76 -138 -141 -257 -65 -120 -122 -218 -127 -218 -5 0 -14 9 -21
20 -12 18 -13 18 -29 -6 l-17 -26 -44 64 c-25 34 -229 331 -453 658 -224 327
-411 599 -415 603 -4 5 -196 -337 -426 -760z"/>
<path d="M5318 4518 c-91 -167 -164 -305 -162 -307 1 -1 124 68 273 154 182
106 268 161 263 169 -43 70 -195 286 -201 286 -4 0 -82 -136 -173 -302z"/>
<path d="M3490 4308 c-90 -167 -172 -316 -182 -333 l-17 -30 339 -197 c244
-143 347 -198 370 -198 21 0 85 31 200 98 93 53 168 100 167 104 -4 13 -699
858 -706 858 -4 0 -81 -136 -171 -302z"/>
<path d="M3516 2583 c-3 -3 -6 -151 -6 -328 0 -246 -3 -325 -12 -333 -22 -18
-140 -63 -147 -57 -3 4 -6 156 -6 339 0 248 -3 337 -12 348 -9 10 -29 14 -74
12 -34 -2 -63 -5 -65 -7 -8 -8 -4 -841 4 -846 5 -3 14 -16 21 -28 16 -31 28
-29 111 13 39 19 87 41 108 48 20 8 81 35 135 61 l97 47 0 243 c0 133 -3 290
-7 348 l-6 106 -41 15 c-56 20 -92 27 -100 19z"/>
<path d="M2486 2572 c-2 -1 0 -39 3 -85 3 -45 5 -116 5 -157 -6 -373 -5 -589
4 -612 10 -25 12 -26 54 -16 24 6 50 11 58 12 22 2 29 23 29 101 1 68 2 71 36
98 19 15 39 25 45 22 5 -3 52 -59 105 -125 53 -66 97 -120 99 -120 11 0 107
55 117 66 11 14 -21 64 -132 199 -92 114 -92 101 1 206 74 84 80 94 80 134 0
36 -5 48 -30 68 -16 14 -40 29 -52 33 -30 9 -213 119 -259 156 -32 26 -42 29
-98 26 -34 -2 -64 -4 -65 -6z m258 -227 c41 -20 79 -42 86 -50 16 -19 -5 -47
-110 -150 l-82 -80 6 109 c3 60 6 131 6 158 0 26 4 48 10 48 5 0 43 -16 84
-35z"/>
<path d="M4769 2564 c-7 -9 -8 -54 -4 -136 4 -68 8 -253 9 -413 1 -266 3 -290
19 -293 9 -2 17 -8 17 -13 0 -15 57 -10 70 6 7 8 24 15 39 15 22 0 170 48 274
89 32 12 33 20 9 86 -22 63 -36 65 -134 26 -41 -16 -91 -33 -111 -36 l-37 -7
0 213 c0 238 -9 450 -19 461 -12 14 -121 15 -132 2z"/>
<path d="M3903 2506 c-43 -43 -62 -68 -57 -79 5 -14 81 -47 109 -47 13 0 115
100 115 113 0 17 -68 77 -86 77 -10 0 -46 -29 -81 -64z"/>
<path d="M5373 2506 c-43 -43 -62 -68 -57 -79 5 -14 81 -47 109 -47 13 0 115
100 115 113 0 17 -68 77 -86 77 -10 0 -46 -29 -81 -64z"/>
<path d="M3890 2265 c-8 -10 -10 -32 -6 -67 17 -132 20 -191 18 -308 -2 -69 0
-140 3 -157 l6 -33 63 0 64 0 7 113 c4 61 9 121 11 132 5 24 -16 222 -26 250
-4 11 -28 31 -54 43 -25 13 -48 27 -51 33 -9 13 -21 11 -35 -6z"/>
<path d="M5360 2265 c-8 -10 -10 -32 -6 -67 17 -132 20 -191 18 -308 -2 -69 0
-140 3 -157 l6 -33 63 0 64 0 7 113 c4 61 9 121 11 132 5 24 -16 222 -26 250
-4 11 -28 31 -54 43 -25 13 -48 27 -51 33 -9 13 -21 11 -35 -6z"/>
<path d="M4770 1049 c-14 -10 -30 -23 -36 -28 -11 -9 -13 -566 -2 -577 3 -2
21 -5 39 -6 25 -1 56 13 119 52 148 92 179 120 180 159 0 28 -9 43 -47 79 -51
50 -52 44 14 92 17 13 19 20 12 47 -7 25 -27 44 -87 84 -42 28 -86 59 -97 69
-11 9 -31 24 -45 33 -23 14 -27 14 -50 -4z m97 -144 c81 -52 80 -46 16 -88
-62 -41 -73 -38 -73 19 0 33 10 94 16 94 2 0 20 -11 41 -25z m99 -236 c13 -15
8 -21 -59 -63 -41 -25 -80 -46 -86 -46 -7 0 -11 21 -11 54 0 54 1 55 42 80 40
24 43 24 71 8 15 -9 35 -24 43 -33z"/>
<path d="M5594 1048 c-48 -54 -194 -279 -194 -299 0 -6 20 -37 44 -68 25 -31
80 -100 122 -154 51 -64 82 -96 92 -92 7 3 27 5 43 5 23 0 29 4 29 21 0 12 15
42 33 68 52 73 117 186 117 202 0 8 -4 19 -9 25 -5 5 -11 20 -13 34 -3 25 -4
25 -87 23 -87 -3 -111 -12 -106 -41 15 -75 13 -72 56 -72 l40 0 -32 -57 c-58
-103 -45 -104 -138 8 l-83 100 47 74 c25 41 52 81 58 88 16 16 71 89 80 103 7
12 -23 36 -59 48 -14 4 -26 -1 -40 -16z"/>
<path d="M4173 1043 c-10 -11 -29 -38 -43 -61 -14 -23 -47 -77 -75 -120 l-50
-77 -5 125 -5 125 -46 3 -46 3 -7 -273 c-4 -150 -8 -284 -9 -298 -2 -23 2 -25
45 -28 l47 -3 5 43 c4 24 7 67 9 96 l2 53 102 -101 c111 -111 121 -114 162
-60 l22 30 -48 43 c-26 23 -73 66 -105 96 l-57 53 15 32 c9 17 35 60 59 96
128 197 122 179 68 224 -21 17 -22 17 -40 -1z"/>
<path d="M2103 1040 c-27 -11 -27 -11 -11 -45 10 -23 17 -25 69 -25 l59 0 2
-267 3 -268 45 0 45 0 3 263 2 262 70 0 c66 0 70 1 76 25 12 48 4 51 -133 58
-162 9 -202 8 -230 -3z"/>
<path d="M2868 1043 c-16 -4 -18 -19 -18 -127 l0 -122 -67 -26 c-115 -44 -109
-49 -104 69 2 55 0 125 -4 153 l-7 52 -40 -5 c-22 -3 -42 -7 -44 -10 -8 -7 -8
-563 0 -575 3 -6 22 -6 50 1 l45 10 3 81 3 80 78 29 c43 16 80 27 81 25 2 -1
6 -57 10 -123 4 -65 8 -120 10 -122 4 -5 81 19 86 27 3 4 3 138 0 296 l-5 288
-30 2 c-16 1 -38 0 -47 -3z"/>
<path d="M3125 1009 c-25 -23 -45 -48 -45 -55 0 -7 18 -19 40 -25 40 -12 41
-12 80 26 l40 39 -27 28 c-15 15 -31 28 -35 28 -5 0 -29 -19 -53 -41z"/>
<path d="M3628 863 c4 -165 3 -186 -10 -175 -25 21 -168 240 -169 259 0 11 -3
13 -6 5 -8 -21 -33 6 -33 37 0 29 -16 59 -26 49 -3 -4 -6 -141 -6 -304 1 -329
-1 -321 64 -304 l35 10 2 132 c1 73 4 134 5 135 2 2 35 -47 74 -109 39 -62 79
-123 89 -135 10 -13 17 -32 15 -43 -5 -30 12 -24 43 16 l27 36 -4 278 c-2 153
-5 281 -8 283 -3 2 -26 7 -51 11 l-46 7 5 -188z"/>
<path d="M5205 1009 c-25 -23 -45 -48 -45 -55 0 -7 18 -19 40 -25 40 -12 41
-12 80 26 l40 39 -27 28 c-15 15 -31 28 -35 28 -5 0 -29 -19 -53 -41z"/>
<path d="M3113 718 c4 -66 7 -156 7 -200 l0 -78 44 0 43 0 7 61 c8 79 7 202
-2 254 -6 32 -14 44 -47 62 -22 13 -44 23 -49 23 -5 0 -6 -51 -3 -122z"/>
<path d="M5193 718 c4 -66 7 -156 7 -200 l0 -78 44 0 43 0 7 61 c8 79 7 202
-2 254 -6 32 -14 44 -47 62 -22 13 -44 23 -49 23 -5 0 -6 -51 -3 -122z"/>
</g>
</svg>
